<svg width="449" height="353" viewBox="0 0 449 353" fill="none" xmlns="http://www.w3.org/2000/svg">
<path d="M392.113 0.107269H56.1125C41.2653 0.123152 27.0307 6.02824 16.5321 16.5268C6.03352 27.0254 0.128431 41.26 0.112549 56.1073V296.107C0.128431 310.955 6.03352 325.189 16.5321 335.688C27.0307 346.186 41.2653 352.091 56.1125 352.107H392.113C406.96 352.091 421.194 346.186 431.693 335.688C442.192 325.189 448.097 310.955 448.113 296.107V56.1073C448.097 41.26 442.192 27.0254 431.693 16.5268C421.194 6.02824 406.96 0.123152 392.113 0.107269V0.107269ZM377.933 92.7373L233.933 204.737C231.125 206.92 227.669 208.105 224.113 208.105C220.556 208.105 217.101 206.92 214.293 204.737L70.2925 92.7373C68.6007 91.4596 67.1796 89.8585 66.1119 88.0268C65.0442 86.1952 64.3512 84.1697 64.073 82.0679C63.7949 79.9661 63.9373 77.83 64.4919 75.7837C65.0465 73.7375 66.0022 71.8218 67.3035 70.1481C68.6049 68.4744 70.2259 67.076 72.0723 66.0341C73.9188 64.9923 75.9539 64.3278 78.0594 64.0793C80.1649 63.8308 82.2987 64.0033 84.337 64.5866C86.3753 65.1699 88.2773 66.1525 89.9325 67.4773L224.113 171.837L358.293 67.4773C361.648 64.9435 365.865 63.8322 370.034 64.3837C374.202 64.9353 377.985 67.1053 380.566 70.4245C383.147 73.7437 384.317 77.9454 383.824 82.1209C383.332 86.2964 381.215 90.1101 377.933 92.7373Z" fill="black"/>
</svg>
