<svg width="449" height="449" viewBox="0 0 449 449" fill="none" xmlns="http://www.w3.org/2000/svg">
<path d="M224.113 0.107269C100.413 0.107269 0.112549 103.007 0.112549 229.807C0.112549 331.307 64.3125 417.307 153.313 447.707C154.561 447.978 155.835 448.113 157.113 448.107C165.413 448.107 168.613 442.007 168.613 436.707C168.613 431.207 168.413 416.807 168.313 397.607C160.903 399.344 153.323 400.25 145.713 400.307C102.613 400.307 92.8125 366.807 92.8125 366.807C82.6125 340.307 67.9126 333.207 67.9126 333.207C48.4126 319.507 67.8125 319.107 69.3125 319.107H69.4126C91.9126 321.107 103.713 342.907 103.713 342.907C114.913 362.507 129.913 368.007 143.313 368.007C152.173 367.83 160.896 365.786 168.913 362.007C170.913 347.207 176.713 337.107 183.113 331.307C133.413 325.507 81.1125 305.807 81.1125 217.807C81.1125 192.707 89.8125 172.207 104.113 156.207C101.813 150.407 94.1125 127.007 106.313 95.4073C107.949 95.0157 109.631 94.8475 111.313 94.9073C119.413 94.9073 137.713 98.0073 167.913 119.007C204.608 108.74 243.417 108.74 280.113 119.007C310.313 98.0073 328.613 94.9073 336.713 94.9073C338.394 94.8475 340.076 95.0157 341.713 95.4073C353.913 127.007 346.213 150.407 343.913 156.207C358.213 172.307 366.913 192.807 366.913 217.807C366.913 306.007 314.513 325.407 264.613 331.107C272.613 338.207 279.813 352.207 279.813 373.607C279.813 404.307 279.513 429.107 279.513 436.607C279.513 442.007 282.613 448.107 290.913 448.107C292.256 448.113 293.597 447.979 294.913 447.707C384.013 417.307 448.113 331.207 448.113 229.807C448.113 103.007 347.813 0.107269 224.113 0.107269Z" fill="black"/>
</svg>
