<svg width="448" height="448" viewBox="0 0 448 448" fill="none" xmlns="http://www.w3.org/2000/svg">
<path d="M412.17 0H38.28C17.85 0 0 14.7 0 34.89V409.61C0 429.91 17.85 448 38.28 448H412.06C432.6 448 448 429.79 448 409.61V34.89C448.12 14.7 432.6 0 412.17 0ZM138.87 373.43H74.69V173.88H138.87V373.43ZM109 143.54H108.54C88 143.54 74.7 128.25 74.7 109.11C74.7 89.62 88.35 74.69 109.35 74.69C130.35 74.69 143.2 89.51 143.66 109.11C143.65 128.25 130.35 143.54 109 143.54ZM373.43 373.43H309.25V264.32C309.25 238.18 299.91 220.32 276.69 220.32C258.95 220.32 248.45 232.32 243.78 244.01C242.03 248.21 241.56 253.93 241.56 259.77V373.43H177.38V173.88H241.56V201.65C250.9 188.35 265.49 169.21 299.44 169.21C341.57 169.21 373.44 196.98 373.44 256.85L373.43 373.43Z" fill="black"/>
</svg>
