<svg width="1280" height="3768" viewBox="0 0 1280 3768" fill="none" xmlns="http://www.w3.org/2000/svg">
<mask id="mask0_314_143" style="mask-type:alpha" maskUnits="userSpaceOnUse" x="0" y="0" width="1280" height="3768">
<rect width="1280" height="3768" fill="#954545"/>
</mask>
<g mask="url(#mask0_314_143)">
<path d="M-399.802 1543.89C-675.849 1697.99 -1163.04 1263.53 -1049 1007.17C-944.279 710.986 -765.784 422.118 -409.94 418.903C-54.0962 415.689 308.119 651.796 239.621 995.525C171.122 1339.25 179.711 1299.28 -399.802 1543.89Z" fill="#CCCCCC" fill-opacity="0.1"/>
<path d="M1916.56 2012.1C2033.74 2226.52 1694.56 2600.03 1497.21 2510.12C1269.03 2427.11 1047.02 2287.15 1047.01 2012.1C1047.01 1737.06 1232.01 1458.75 1497.19 1514.09C1762.37 1569.42 1731.54 1562.51 1916.56 2012.1Z" fill="#CCCCCC" fill-opacity="0.1"/>
<path d="M1064.46 -309.685C1083.49 -522.012 1530.75 -583.684 1635.74 -410.572C1767.72 -224.673 1866.22 -3.52313 1727.25 183.574C1588.27 370.672 1306.63 455.035 1132.47 266.969C958.298 78.9007 978.307 101.097 1064.46 -309.685Z" fill="#5E72E4" fill-opacity="0.1"/>
<path d="M-142.355 1508.82C-251.669 1499.03 -283.42 1268.83 -194.296 1214.8C-98.5876 1146.87 15.2693 1096.17 111.594 1167.7C207.92 1239.23 251.354 1384.18 154.529 1473.82C57.7044 1563.46 69.1317 1553.16 -142.355 1508.82Z" fill="#5E72E4" fill-opacity="0.1"/>
<path d="M-384.486 3525.38C-474.749 3697.46 -213.478 3997.23 -61.4597 3925.06C114.311 3858.45 285.332 3746.12 285.336 3525.38C285.341 3304.64 142.831 3081.28 -61.4424 3125.69C-265.716 3170.1 -241.963 3164.55 -384.486 3525.38Z" fill="#CCCCCC" fill-opacity="0.1"/>
<path d="M-155.539 1777.85C-306.76 1698.1 -534.26 1960.68 -461.046 2103.66C-390.422 2269.65 -282.089 2429.26 -98.0507 2420.49C85.9886 2411.71 259.975 2266.11 205.418 2071.89C150.86 1877.68 157.526 1900.24 -155.539 1777.85Z" fill="#5E72E4" fill-opacity="0.1"/>
<path d="M1383.27 3250.39C1467.36 3242.54 1491.78 3057.93 1423.23 3014.6C1349.61 2960.12 1262.02 2919.47 1187.93 2976.83C1113.83 3034.19 1080.42 3150.44 1154.9 3222.32C1229.38 3294.21 1220.59 3285.95 1383.27 3250.39Z" fill="#5E72E4" fill-opacity="0.1"/>
<path d="M1431.3 2197.49C1533.31 2127.73 1702.25 2280.67 1657.08 2384.79C1614.65 2504.15 1545.71 2623.2 1417.29 2636.76C1288.86 2650.31 1161.89 2570.56 1192 2433.88C1222.11 2297.19 1218.39 2313.11 1431.3 2197.49Z" fill="#5E72E4" fill-opacity="0.1"/>
</g>
</svg>
