<svg width="1280" height="720" viewBox="0 0 1280 720" fill="none" xmlns="http://www.w3.org/2000/svg">
<mask id="mask0_6_100" style="mask-type:alpha" maskUnits="userSpaceOnUse" x="0" y="0" width="1280" height="3768">
<rect width="1280" height="3768" fill="#954545"/>
</mask>
<g mask="url(#mask0_6_100)">
<path d="M429.198 1386.89C153.151 1540.99 -334.037 1106.53 -220.004 850.166C-115.279 553.986 63.2161 265.118 419.06 261.903C774.904 258.689 1137.12 494.796 1068.62 838.525C1000.12 1182.25 1008.71 1142.28 429.198 1386.89Z" fill="#CCCCCC" fill-opacity="0.1"/>
<path d="M688.459 224.315C707.49 11.9882 1154.75 -49.6837 1259.74 123.428C1391.72 309.327 1490.22 530.477 1351.25 717.574C1212.27 904.672 930.633 989.035 756.466 800.969C582.298 612.901 602.307 635.097 688.459 224.315Z" fill="#5E72E4" fill-opacity="0.1"/>
</g>
</svg>
